<mxfile host="app.diagrams.net" agent="Mozilla/5.0 (Windows NT 10.0; Win64; x64; rv:137.0) Gecko/20100101 Firefox/137.0" version="26.2.14">
  <diagram name="Page-1" id="kZShbT7FhqULc5-gDiD0">
    <mxGraphModel>
      <root>
        <mxCell id="0" />
        <mxCell id="1" parent="0" />
        <mxCell id="2" value="SD-WAN_Network" style="whiteSpace=wrap;strokeWidth=2;verticalAlign=top;" vertex="1" parent="1">
          <mxGeometry x="8" y="8" width="1258" height="735" as="geometry" />
        </mxCell>
        <mxCell id="3" value="User Device" style="whiteSpace=wrap;strokeWidth=2;" vertex="1" parent="2">
          <mxGeometry x="619" y="46" width="144" height="54" as="geometry" />
        </mxCell>
        <mxCell id="4" value="SD-WAN Edge Device" style="rounded=1;arcSize=20;strokeWidth=2" vertex="1" parent="2">
          <mxGeometry x="520" y="197" width="177" height="54" as="geometry" />
        </mxCell>
        <mxCell id="5" value="Public Cloud" style="whiteSpace=wrap;strokeWidth=2;" vertex="1" parent="2">
          <mxGeometry x="43" y="348" width="149" height="54" as="geometry" />
        </mxCell>
        <mxCell id="6" value="Data Center" style="whiteSpace=wrap;strokeWidth=2;" vertex="1" parent="2">
          <mxGeometry x="242" y="348" width="146" height="54" as="geometry" />
        </mxCell>
        <mxCell id="7" value="Internet Service Provider" style="whiteSpace=wrap;strokeWidth=2;" vertex="1" parent="2">
          <mxGeometry x="438" y="348" width="239" height="54" as="geometry" />
        </mxCell>
        <mxCell id="8" value="Branch Office" style="whiteSpace=wrap;strokeWidth=2;" vertex="1" parent="2">
          <mxGeometry x="743" y="348" width="158" height="54" as="geometry" />
        </mxCell>
        <mxCell id="9" value="Traffic Analysis" style="whiteSpace=wrap;strokeWidth=2;" vertex="1" parent="2">
          <mxGeometry x="975" y="348" width="168" height="54" as="geometry" />
        </mxCell>
        <mxCell id="10" value="Security Appliances" style="whiteSpace=wrap;strokeWidth=2;" vertex="1" parent="2">
          <mxGeometry x="959" y="500" width="200" height="54" as="geometry" />
        </mxCell>
        <mxCell id="11" value="Security Operations Center" style="whiteSpace=wrap;strokeWidth=2;" vertex="1" parent="2">
          <mxGeometry x="932" y="652" width="254" height="54" as="geometry" />
        </mxCell>
        <mxCell id="12" value="VPN Traffic" style="curved=1;startArrow=none;endArrow=block;exitX=0.3;exitY=0.99;entryX=0.5;entryY=0;" edge="1" parent="2" source="3" target="4">
          <mxGeometry relative="1" as="geometry">
            <Array as="points">
              <mxPoint x="608" y="148" />
            </Array>
          </mxGeometry>
        </mxCell>
        <mxCell id="13" value="Internet" style="curved=1;startArrow=none;endArrow=block;exitX=0;exitY=0.75;entryX=0.5;entryY=0.01;" edge="1" parent="2" source="4" target="5">
          <mxGeometry relative="1" as="geometry">
            <Array as="points">
              <mxPoint x="118" y="300" />
            </Array>
          </mxGeometry>
        </mxCell>
        <mxCell id="14" value="MPLS" style="curved=1;startArrow=none;endArrow=block;exitX=0;exitY=0.92;entryX=0.5;entryY=0.01;" edge="1" parent="2" source="4" target="6">
          <mxGeometry relative="1" as="geometry">
            <Array as="points">
              <mxPoint x="315" y="300" />
            </Array>
          </mxGeometry>
        </mxCell>
        <mxCell id="15" value="Direct Internet Access" style="curved=1;startArrow=none;endArrow=block;exitX=0.4;exitY=1;entryX=0.5;entryY=0.01;" edge="1" parent="2" source="4" target="7">
          <mxGeometry relative="1" as="geometry">
            <Array as="points">
              <mxPoint x="558" y="300" />
            </Array>
          </mxGeometry>
        </mxCell>
        <mxCell id="16" value="" style="curved=1;startArrow=none;endArrow=block;exitX=0.75;exitY=1;entryX=0.3;entryY=0.01;" edge="1" parent="2" source="4" target="8">
          <mxGeometry relative="1" as="geometry">
            <Array as="points">
              <mxPoint x="733" y="300" />
            </Array>
          </mxGeometry>
        </mxCell>
        <mxCell id="17" value="VPN Traffic" style="curved=1;startArrow=none;endArrow=block;exitX=0.62;exitY=0.01;entryX=0.96;entryY=0.99;" edge="1" parent="2" source="8" target="3">
          <mxGeometry relative="1" as="geometry">
            <Array as="points">
              <mxPoint x="875" y="300" />
              <mxPoint x="875" y="148" />
            </Array>
          </mxGeometry>
        </mxCell>
        <mxCell id="18" value="Traffic Management" style="curved=1;startArrow=none;endArrow=block;exitX=1;exitY=0.84;entryX=0.31;entryY=0.01;" edge="1" parent="2" source="4" target="9">
          <mxGeometry relative="1" as="geometry">
            <Array as="points">
              <mxPoint x="968" y="300" />
            </Array>
          </mxGeometry>
        </mxCell>
        <mxCell id="19" value="Performance Metrics" style="curved=1;startArrow=none;endArrow=block;exitX=0.67;exitY=0.01;entryX=1;entryY=0.73;" edge="1" parent="2" source="9" target="4">
          <mxGeometry relative="1" as="geometry">
            <Array as="points">
              <mxPoint x="1137" y="300" />
            </Array>
          </mxGeometry>
        </mxCell>
        <mxCell id="20" value="Policy Enforcement" style="curved=1;startArrow=none;endArrow=block;exitX=0.5;exitY=1.01;entryX=0.5;entryY=0;" edge="1" parent="2" source="9" target="10">
          <mxGeometry relative="1" as="geometry">
            <Array as="points" />
          </mxGeometry>
        </mxCell>
        <mxCell id="21" value="Threat Detection" style="curved=1;startArrow=none;endArrow=block;exitX=0;exitY=0.78;entryX=0;entryY=0.14;" edge="1" parent="2" source="10" target="11">
          <mxGeometry relative="1" as="geometry">
            <Array as="points">
              <mxPoint x="555" y="603" />
            </Array>
          </mxGeometry>
        </mxCell>
        <mxCell id="22" value="Alerting" style="curved=1;startArrow=none;endArrow=block;exitX=0.64;exitY=-0.01;entryX=0.68;entryY=1;" edge="1" parent="2" source="11" target="10">
          <mxGeometry relative="1" as="geometry">
            <Array as="points">
              <mxPoint x="1159" y="603" />
            </Array>
          </mxGeometry>
        </mxCell>
      </root>
    </mxGraphModel>
  </diagram>
</mxfile>
